<!-- Generator: Adobe Illustrator 23.1.1, SVG Export Plug-In . SVG Version: 6.00 Build 0)  -->
<svg version="1.1" id="Layer_1" xmlns="http://www.w3.org/2000/svg" xmlns:xlink="http://www.w3.org/1999/xlink" x="0px" y="0px"
	 viewBox="0 0 350.9 573.54" style="enable-background:new 0 0 350.9 573.54;" xml:space="preserve">
<style type="text/css">
	.st0{fill:url(#SVGID_1_);}
	.st1{fill:#4E4060;}
	.st2{fill:#63557200;}
	.st3{fill:#A698B6;}
	.st4{fill:#63557200;}
	.st5{fill:#00E0D5;}
	.st6{fill:#87A936;}
	.st7{fill:#00CEC3;}
	.st8{fill:#00E2D1;}
	.st9{fill:#5FFFEF;}
	.st10{fill:#DAD5E0;}
	.st11{fill:#FFFFFF;}
	.st12{fill:#FCCAA2;}
	.st13{fill:#C19E82;}
	.st14{fill:#EAB794;}
	.st15{fill:#FCCA01;}
	.st16{fill:#F18E1B;}
	.st17{fill:#4A5061;}
	.st18{fill:#443F4A;}
	.st19{fill:url(#SVGID_2_);}
	.st20{fill:#946054;}
	.st21{fill:url(#SVGID_3_);}
	.st22{fill:#5A3921;}
	.st23{fill:#864F26;}
	.st24{fill:url(#SVGID_4_);}
	.st25{fill:#DFA09B;}
	.st26{fill:#412B24;}
	.st27{fill:#2F3641;}
	.st28{fill:none;stroke:#2F3641;stroke-width:1.0819;stroke-linecap:round;stroke-miterlimit:10;}
	.st29{opacity:0.28;fill:#1D2129;}
	.st30{fill:#C3811B;}
	.st31{fill:#E5A919;}
	.st32{fill:#F2CD15;}
	.st33{fill:#1D2129;}
	.st34{fill:#06F7DA;}
	.st35{opacity:0.84;}
	.st36{fill:#05CCC2;}
	.st37{opacity:0.61;}
	.st38{fill:#77668C;}
	.st39{fill:#63557200;}
	.st40{fill:none;stroke:url(#SVGID_5_);stroke-width:3.2457;stroke-linecap:round;stroke-miterlimit:10;}
	@keyframes width_scale {
		0% {
			opacity: 0;
		}
		100% {
			opacity: 1;
		}
	}
	@keyframes scale {
		0% {
			transform: translate(0px, 0px);
		}
		100% {
			transform: translate(2px, 8px)
		}
	}
	@keyframes scale2 {
		0% {
			transform: translate(0px, 0px);
		}
		100% {
			transform: translate(-1px, 8px)
		}
	}
	@keyframes scale3 {
		0% {
			transform: translate(1px, 0px);
		}
		100% {
			transform: translate(-6px, 0px)
		}
	}
	@keyframes scale4 {
		0% {
			transform: translate(0px, -3px);
		}
		100% {
			transform: translate(-1px, 2px)
		}
	}
</style>



<polygon style="animation: 1s width_scale infinite linear alternate;" class="st0" points="93.1,257.87 17.92,207.81 0,275.17 92.39,260.88 "/>



<g>
	<path class="st34" d="M156.11,472.16c8.41-2.33,15.97-7.42,24.6-8.71c8.64-1.3,18.07,0.11,24.76,5.72
		c10.28,8.62,11.47,24.04,9.66,37.33c-3.43,25.26-13.38,41.18-36.64,45.75c-24.36,4.79-41.52,1.54-65.4,1.04
		c-15.28-0.32-29.31-3.77-40.51-14.18c-11.2-10.41-18.73-25.74-16.96-40.92c1.75-14.97,13.91-23.02,25.72-22.12
		c7.26,0.56,13.72,5.22,20.99,5.69C127.28,483.39,142.5,475.93,156.11,472.16z"/>
</g>
<g class="st35">
	<path class="st36" d="M124.72,532c-56.74-3.63-66.96-25.76-63.29-47.62c-3.02,3.56-5.14,8.2-5.8,13.82
		c-1.78,15.18,5.76,30.51,16.96,40.92c11.2,10.41,25.23,13.86,40.51,14.18c23.88,0.5,41.04,3.75,65.4-1.04
		c22.94-4.51,32.92-20.07,36.48-44.72C203.51,529.68,177.57,535.37,124.72,532z"/>
</g>
<g class="st37">
	<path class="st36" d="M103.19,494.28c27.48,2.84,55.66-4.24,69.01-12.32c10.98-6.64,3.57-12.24-3.54-14.69
		c-4.13,1.76-8.23,3.68-12.55,4.88c-13.61,3.77-28.83,11.23-53.77,9.61c-3.98-0.26-7.73-1.78-11.5-3.19
		C79.5,483.91,84.44,492.34,103.19,494.28z"/>
</g>

<path class="st5" d="M78.49,496.7c-0.42,1.68-2.39,4.48-3.26,5.1c-1.66,1.19-1.79-3.04-14.85-11.39
	c-9.77-6.25-15.47-9.89-15.47-9.89l1.55-2.42c0,0,5.89,3.77,15.61,9.98C74.83,496.25,78.94,494.9,78.49,496.7z"/>
<path class="st7" d="M75.23,501.8c0.87-0.62,2.84-3.42,3.26-5.1c0.3-1.2-1.42-1-6.36-3.14l-2.44,3.81
	C73.69,500.99,74.12,502.59,75.23,501.8z"/>
<path class="st7" d="M46.46,478.11l-1.55,2.42c0,0,1.43,0.91,4.08,2.61l1.55-2.42C47.9,479.03,46.46,478.11,46.46,478.11z"/>
<path class="st8" d="M43.57,465.31c4.96,3.17,6.41,9.76,3.24,14.72c-3.17,4.96-9.76,6.41-14.72,3.24
	c-4.96-3.17-6.41-9.76-3.24-14.72C32.02,463.59,38.61,462.14,43.57,465.31z"/>
<path class="st7" d="M44.36,475.76c-2.73,4.28-8.42,5.53-12.7,2.79c-2.45-1.56-3.9-4.1-4.18-6.78c-1.05,4.3,0.67,8.98,4.61,11.5
	c4.96,3.17,11.55,1.72,14.72-3.24c2.99-4.68,1.86-10.81-2.44-14.15C46.22,468.8,46.34,472.65,44.36,475.76z"/>
<path class="st9" d="M40.44,466.31c0.9,1.69-0.49,4.18-3.11,5.57c-2.61,1.39-5.46,1.15-6.36-0.53c-0.9-1.69,0.49-4.18,3.11-5.57
	C36.69,464.39,39.54,464.63,40.44,466.31z"/>
<path class="st5" d="M189.49,492.93c-0.76-1.56-1.05-4.97-0.79-6.01c0.51-1.98,3.32,1.17,18.69-0.84c11.5-1.51,18.2-2.38,18.2-2.38
	l0.37,2.85c0,0-6.93,0.91-18.37,2.4C192.58,490.92,190.3,494.6,189.49,492.93z"/>
<path class="st7" d="M188.7,486.92c-0.27,1.04,0.03,4.45,0.79,6.01c0.54,1.11,1.74-0.15,6.89-1.69l-0.59-4.49
	C190.4,486.56,189.03,485.61,188.7,486.92z"/>
<path class="st7" d="M225.97,486.55l-0.37-2.85c0,0-1.68,0.22-4.8,0.63l0.37,2.85C224.26,486.77,225.97,486.55,225.97,486.55z"/>

<g class="scale3" style="animation: 1s scale3 infinite linear alternate;">
<circle class="st8" cx="235.03" cy="483.91" r="10.66"/>
<path class="st7" d="M229.09,487c-0.66-5.03,2.89-9.65,7.92-10.31c2.88-0.38,5.62,0.63,7.56,2.49c-1.97-3.97-6.29-6.44-10.93-5.84
	c-5.84,0.76-9.95,6.12-9.19,11.95c0.72,5.51,5.53,9.48,10.98,9.26C232.14,493.52,229.57,490.65,229.09,487z"/>
<path class="st9" d="M238.16,491.7c-1.77-0.71-2.31-3.52-1.21-6.27c1.11-2.75,3.44-4.4,5.21-3.68c1.77,0.71,2.31,3.52,1.21,6.27
	C242.27,490.77,239.93,492.42,238.16,491.7z"/>
</g>

<path class="st5" d="M102.74,517.75c1.7,0.35,4.57,2.21,5.23,3.06c1.25,1.61-2.96,1.91-10.78,15.29
	c-5.85,10.01-9.26,15.85-9.26,15.85l-2.48-1.45c0,0,3.53-6.04,9.35-15.99C102.44,521.43,100.93,517.38,102.74,517.75z"/>
<path class="st7" d="M107.97,520.81c-0.66-0.85-3.53-2.7-5.23-3.06c-1.21-0.25-0.95,1.46-2.88,6.48l3.91,2.28
	C107.22,522.38,108.81,521.88,107.97,520.81z"/>
<path class="st7" d="M85.45,550.5l2.48,1.45c0,0,0.86-1.46,2.44-4.18l-2.48-1.45C86.32,549.02,85.45,550.5,85.45,550.5z"/>
<g class="scale4" style="animation: 1s scale4 infinite linear alternate;">
<path class="st8" d="M72.78,553.9c2.97-5.08,9.5-6.8,14.58-3.82s6.8,9.5,3.82,14.58c-2.97,5.08-9.5,6.8-14.58,3.82
	C71.52,565.51,69.81,558.99,72.78,553.9z"/>
<path class="st7" d="M83.19,552.7c4.38,2.56,5.86,8.19,3.3,12.57c-1.47,2.51-3.94,4.06-6.6,4.45c4.34,0.87,8.95-1.03,11.31-5.06
	c2.97-5.08,1.26-11.61-3.82-14.58c-4.8-2.8-10.88-1.43-14.04,3.01C76.16,551.11,80,550.83,83.19,552.7z"/>
<path class="st9" d="M73.9,556.99c1.65-0.96,4.2,0.33,5.69,2.88c1.5,2.56,1.37,5.41-0.28,6.37c-1.65,0.96-4.2-0.33-5.69-2.88
	C72.13,560.81,72.26,557.95,73.9,556.99z"/>
</g>
<path class="st5" d="M96.68,487.13c-1.88,1.03-6.05,1.59-7.34,1.32c-2.46-0.5,1.25-4.16-2.14-22.95
	c-2.53-14.05-4.01-22.25-4.01-22.25l3.48-0.63c0,0,1.53,8.47,4.04,22.45C94.03,483.44,98.69,486.03,96.68,487.13z"/>
<path class="st7" d="M89.34,488.45c1.29,0.27,5.47-0.29,7.34-1.32c1.33-0.73-0.28-2.13-2.49-8.37l-5.48,0.99
	C88.79,486.38,87.7,488.12,89.34,488.45z"/>

<g style="animation: 2s scale infinite linear alternate;">
	<path class="st7" d="M86.68,442.63l-3.48,0.63c0,0,0.37,2.06,1.06,5.87l3.48-0.63C87.05,444.71,86.68,442.63,86.68,442.63z"/>
	<path class="st8" d="M95.82,429.31c1.28,7.14-3.46,13.96-10.59,15.25c-7.14,1.28-13.96-3.46-15.25-10.59
	c-1.28-7.14,3.46-13.96,10.59-15.25C87.71,417.43,94.54,422.18,95.82,429.31z"/>
	<path class="st7" d="M87.04,438.77c-6.15,1.11-12.04-2.98-13.15-9.14c-0.63-3.52,0.44-6.95,2.62-9.45
	c-4.76,2.65-7.56,8.12-6.53,13.79c1.28,7.14,8.11,11.88,15.25,10.59c6.73-1.21,11.33-7.36,10.75-14.05
	C94.88,434.63,91.51,437.96,87.04,438.77z"/>
	<path class="st9" d="M92.3,427.32c-0.77,2.22-4.19,3.05-7.64,1.85c-3.45-1.2-5.61-3.97-4.84-6.19c0.77-2.22,4.19-3.05,7.64-1.85
	C90.9,422.33,93.07,425.1,92.3,427.32z"/>
</g>
	
<path class="st5" d="M195.26,475.35c-2.12,0.26-6.21-0.77-7.31-1.5c-2.1-1.38,2.7-3.4,6.54-22.1c2.87-13.99,4.55-22.14,4.55-22.14
	l3.46,0.71c0,0-1.73,8.43-4.59,22.34C194.16,470.94,197.52,475.07,195.26,475.35z"/>
<path class="st7" d="M187.95,473.85c1.1,0.73,5.19,1.76,7.31,1.5c1.51-0.18,0.53-2.08,0.8-8.7l-5.46-1.12
	C188.21,471.72,186.55,472.93,187.95,473.85z"/>
<path class="st7" d="M202.5,430.32l-3.46-0.71c0,0-0.42,2.05-1.2,5.84l3.46,0.71C202.08,432.39,202.5,430.32,202.5,430.32z"/>
<g class="scale2" style="animation: 1.5s scale2 infinite linear alternate;">
<path class="st8" d="M215.94,421.35c-1.46,7.1-8.4,11.68-15.5,10.22c-7.1-1.46-11.68-8.4-10.22-15.5c1.46-7.1,8.4-11.68,15.5-10.22
	C212.82,407.31,217.4,414.25,215.94,421.35z"/>
<path class="st7" d="M204.28,426.87c-6.12-1.26-10.07-7.24-8.81-13.37c0.72-3.5,2.99-6.29,5.95-7.8
	c-5.41,0.69-10.03,4.73-11.19,10.37c-1.46,7.1,3.12,14.04,10.22,15.5c6.7,1.38,13.26-2.62,15.2-9.05
	C213.09,425.94,208.73,427.78,204.28,426.87z"/>
<path class="st9" d="M213.41,418.19c-1.54,1.77-5.02,1.27-7.78-1.12c-2.75-2.39-3.74-5.77-2.19-7.54c1.54-1.77,5.02-1.27,7.78,1.12
	C213.97,413.04,214.95,416.42,213.41,418.19z"/>
</g>
<path class="st5" d="M73.89,515.23c0.92,0.72,2.1,2.69,2.25,3.39c0.28,1.34-2.35,0.27-11.03,6.02c-6.49,4.3-10.28,6.8-10.28,6.8
	l-1.06-1.61c0,0,3.91-2.59,10.37-6.87C72.61,517.36,72.9,514.47,73.89,515.23z"/>
<path class="st7" d="M76.13,518.63c-0.15-0.7-1.33-2.67-2.25-3.39c-0.65-0.51-1,0.6-3.66,3.05l1.68,2.53
	C75.21,519.35,76.32,519.52,76.13,518.63z"/>
<path class="st7" d="M53.76,529.84l1.06,1.61c0,0,0.95-0.63,2.71-1.8l-1.06-1.61C54.72,529.21,53.76,529.84,53.76,529.84z"/>
<path class="st8" d="M45.12,528.14c3.3-2.18,7.74-1.28,9.92,2.02c2.18,3.3,1.28,7.74-2.02,9.92c-3.3,2.18-7.74,1.28-9.92-2.02
	C40.92,534.76,41.83,530.32,45.12,528.14z"/>
<path class="st7" d="M51.75,530.49c1.88,2.84,1.1,6.67-1.74,8.55c-1.63,1.08-3.57,1.28-5.3,0.73c2.36,1.81,5.69,2.03,8.31,0.3
	c3.3-2.18,4.2-6.62,2.02-9.92c-2.06-3.11-6.13-4.09-9.35-2.35C47.98,527.46,50.38,528.43,51.75,530.49z"/>
<path class="st9" d="M44.93,530.58c1.28-0.09,2.43,1.44,2.57,3.42s-0.78,3.67-2.06,3.76c-1.28,0.09-2.43-1.44-2.57-3.42
	S43.65,530.67,44.93,530.58z"/>
<path class="st5" d="M158.62,496.06c-0.97,0.38-3.03,0.39-3.64,0.19c-1.16-0.4,0.86-1.94,0.39-11.26
	c-0.36-6.97-0.56-11.04-0.56-11.04l1.73-0.09c0,0,0.21,4.2,0.57,11.14C157.56,494.1,159.66,495.65,158.62,496.06z"/>
<path class="st7" d="M154.98,496.24c0.61,0.21,2.67,0.2,3.64-0.19c0.69-0.27-0.01-1.05-0.69-4.22l-2.72,0.14
	C154.84,495.21,154.2,495.98,154.98,496.24z"/>
<path class="st7" d="M156.52,473.85l-1.73,0.09c0,0,0.05,1.02,0.15,2.91l1.73-0.09C156.58,474.89,156.52,473.85,156.52,473.85z"/>
<path class="st8" d="M161.78,467.96c0.18,3.54-2.54,6.56-6.08,6.74c-3.54,0.18-6.56-2.54-6.74-6.08c-0.18-3.54,2.54-6.56,6.08-6.74
	C158.59,461.7,161.6,464.42,161.78,467.96z"/>
<path class="st7" d="M156.94,472c-3.05,0.16-5.65-2.19-5.81-5.25c-0.09-1.75,0.64-3.34,1.86-4.42c-2.48,0.99-4.17,3.47-4.02,6.28
	c0.18,3.54,3.2,6.26,6.74,6.08c3.34-0.17,5.95-2.87,6.08-6.15C161,470.48,159.16,471.89,156.94,472z"/>
<path class="st9" d="M160.2,466.78c-0.51,1.03-2.22,1.22-3.82,0.43c-1.6-0.79-2.48-2.27-1.96-3.3c0.51-1.03,2.22-1.22,3.82-0.43
	C159.83,464.27,160.71,465.75,160.2,466.78z"/>
<path class="st5" d="M121.98,512.26c-0.62,0.84-2.37,1.94-3,2.08c-1.2,0.28-0.29-2.1-5.62-9.76c-3.99-5.73-3.39-4.89-3.39-4.89
	l1.42-0.99c0,0-0.52-0.73,3.44,4.97C120.04,511.16,122.64,511.36,121.98,512.26z"/>
<path class="st7" d="M118.98,514.35c0.63-0.15,2.37-1.24,3-2.08c0.44-0.6-0.56-0.89-2.81-3.22l-2.24,1.56
	C118.32,513.54,118.19,514.53,118.98,514.35z"/>
<path class="st7" d="M111.39,498.7l-1.42,0.99c0,0,0.58,0.84,1.67,2.39l1.42-0.99C111.98,499.55,111.39,498.7,111.39,498.7z"/>
<path class="st8" d="M112.74,490.92c2.02,2.91,1.31,6.91-1.6,8.93c-2.91,2.02-6.91,1.31-8.93-1.6c-2.02-2.91-1.31-6.91,1.6-8.93
	C106.72,487.29,110.72,488.01,112.74,490.92z"/>
<path class="st7" d="M110.77,496.91c-2.51,1.75-5.96,1.13-7.71-1.38c-1-1.44-1.22-3.18-0.76-4.73c-1.58,2.15-1.7,5.15-0.1,7.46
	c2.02,2.91,6.02,3.63,8.93,1.6c2.75-1.91,3.54-5.58,1.92-8.43C113.41,493.47,112.59,495.64,110.77,496.91z"/>
<path class="st9" d="M110.77,490.75c0.11,1.14-1.24,2.21-3.02,2.38c-1.78,0.17-3.3-0.62-3.41-1.77c-0.11-1.14,1.24-2.21,3.02-2.38
	C109.14,488.82,110.66,489.61,110.77,490.75z"/>
<path class="st5" d="M123.23,538.15c1.05,0.03,2.94,0.84,3.42,1.27c0.91,0.83-1.56,1.44-4.81,10.19c-2.43,6.55-2.08,5.57-2.08,5.57
	l-1.62-0.6c0,0-0.3,0.85,2.12-5.66C123.44,540.37,122.12,538.12,123.23,538.15z"/>
<path class="st7" d="M126.65,539.42c-0.48-0.43-2.38-1.24-3.42-1.27c-0.74-0.02-0.41,0.97-1.04,4.14l2.55,0.95
	C126.37,540.43,127.26,539.97,126.65,539.42z"/>
<path class="st7" d="M118.14,554.58l1.62,0.6c0,0,0.36-0.96,1.01-2.73l-1.62-0.6C118.5,553.62,118.14,554.58,118.14,554.58z"/>
<path class="st8" d="M110.98,557.92c1.23-3.32,4.93-5.02,8.25-3.78c3.32,1.23,5.02,4.93,3.78,8.25c-1.23,3.32-4.93,5.02-8.25,3.78
	C111.44,564.93,109.75,561.24,110.98,557.92z"/>
<path class="st7" d="M117.03,556.12c2.87,1.06,4.33,4.25,3.26,7.12c-0.61,1.64-1.91,2.82-3.45,3.33c2.67,0.07,5.2-1.54,6.18-4.18
	c1.23-3.32-0.46-7.02-3.78-8.25c-3.14-1.16-6.6,0.28-8.02,3.24C112.7,555.91,114.95,555.35,117.03,556.12z"/>
<path class="st9" d="M111.97,559.63c0.88-0.74,2.52-0.24,3.68,1.12c1.15,1.36,1.38,3.07,0.5,3.81c-0.88,0.74-2.52,0.24-3.68-1.12
	C111.32,562.08,111.09,560.37,111.97,559.63z"/>
<path class="st5" d="M160.74,538.16c0.52-0.91,2.13-2.2,2.74-2.41c1.16-0.41,0.53,2.05,6.7,9.06c4.62,5.24,3.92,4.47,3.92,4.47
	l-1.3,1.14c0,0,0.6,0.66-3.99-4.55C162.78,539.03,160.18,539.13,160.74,538.16z"/>
<path class="st7" d="M163.48,535.75c-0.61,0.22-2.21,1.51-2.74,2.41c-0.37,0.64,0.66,0.82,3.16,2.87l2.04-1.8
	C164.23,536.47,164.25,535.47,163.48,535.75z"/>
<path class="st7" d="M172.8,550.42l1.3-1.14c0,0-0.68-0.77-1.93-2.19l-1.3,1.14C172.12,549.65,172.8,550.42,172.8,550.42z"/>
<path class="st8" d="M172.35,558.31c-2.34-2.66-2.09-6.72,0.57-9.06c2.66-2.34,6.72-2.09,9.06,0.57c2.34,2.66,2.09,6.72-0.57,9.06
	C178.75,561.22,174.69,560.97,172.35,558.31z"/>
<path class="st7" d="M173.63,552.13c2.29-2.02,5.79-1.8,7.81,0.49c1.16,1.31,1.58,3.02,1.3,4.62c1.32-2.32,1.11-5.31-0.76-7.42
	c-2.34-2.66-6.4-2.92-9.06-0.57c-2.51,2.21-2.88,5.95-0.94,8.6C171.39,555.85,171.96,553.6,173.63,552.13z"/>
<path class="st9" d="M174.32,558.25c-0.24-1.12,0.98-2.34,2.73-2.71c1.74-0.37,3.35,0.24,3.59,1.36c0.24,1.12-0.98,2.34-2.73,2.71
	C176.17,559.98,174.56,559.37,174.32,558.25z"/>
<path class="st5" d="M135.25,500.92c-1.54,0.94-5.03,1.59-6.13,1.42c-2.09-0.32,0.88-3.55-2.75-19.23
	c-2.71-11.72-4.29-18.56-4.29-18.56l2.9-0.67c0,0,1.64,7.07,4.33,18.73C132.86,497.92,136.89,499.91,135.25,500.92z"/>
<path class="st7" d="M129.12,502.33c1.1,0.17,4.59-0.47,6.13-1.42c1.09-0.67-0.33-1.78-2.44-6.95l-4.57,1.06
	C128.57,500.61,127.73,502.12,129.12,502.33z"/>
<path class="st7" d="M124.98,463.87l-2.9,0.67c0,0,0.4,1.71,1.13,4.9l2.9-0.67C125.38,465.61,124.98,463.87,124.98,463.87z"/>
<path class="st8" d="M132.13,452.29c1.38,5.95-2.33,11.89-8.28,13.27c-5.95,1.38-11.89-2.33-13.27-8.28
	c-1.38-5.95,2.33-11.89,8.28-13.27C124.81,442.62,130.75,446.33,132.13,452.29z"/>
<path class="st7" d="M125.13,460.61c-5.13,1.19-10.26-2.01-11.45-7.14c-0.68-2.94,0.08-5.87,1.81-8.06
	c-3.9,2.43-6.02,7.15-4.93,11.87c1.38,5.95,7.32,9.66,13.27,8.28c5.62-1.3,9.23-6.67,8.46-12.27
	C131.56,456.8,128.86,459.74,125.13,460.61z"/>
<path class="st9" d="M129.08,450.76c-0.56,1.9-3.4,2.74-6.35,1.88c-2.95-0.87-4.89-3.11-4.33-5.01c0.56-1.9,3.4-2.74,6.35-1.88
	C127.7,446.61,129.64,448.85,129.08,450.76z"/>
<path class="st5" d="M179.03,521.66c0.29-1.78,2.08-4.85,2.92-5.57c1.61-1.38,2.12,2.98,16.37,10.46
	c10.66,5.59,16.87,8.85,16.87,8.85l-1.38,2.64c0,0-6.42-3.37-17.02-8.93C182.86,521.8,178.72,523.56,179.03,521.66z"/>
<path class="st7" d="M181.95,516.09c-0.85,0.72-2.64,3.79-2.92,5.57c-0.2,1.26,1.56,0.91,6.86,2.68l2.18-4.16
	C183.61,516.8,183.02,515.17,181.95,516.09z"/>
<path class="st7" d="M213.8,538.04l1.38-2.64c0,0-1.56-0.82-4.45-2.34l-1.38,2.64C212.22,537.21,213.8,538.04,213.8,538.04z"/>
<ellipse transform="matrix(0.9111 -0.4123 0.4123 0.9111 -203.2866 140.0939)" class="st8" cx="223.06" cy="541.22" rx="11.06" ry="11.06"/>
<path class="st7" d="M216.18,540.29c2.45-4.67,8.22-6.46,12.88-4.01c2.67,1.4,4.39,3.89,4.93,6.64c0.7-4.54-1.49-9.23-5.78-11.48
	c-5.41-2.84-12.1-0.76-14.94,4.65c-2.68,5.11-0.97,11.35,3.78,14.42C214.87,547.64,214.4,543.68,216.18,540.29z"/>
<path class="st9" d="M221.07,549.71c-1.08-1.66,0.14-4.37,2.72-6.04c2.58-1.67,5.54-1.68,6.62-0.01c1.08,1.66-0.14,4.37-2.72,6.04
	C225.11,551.36,222.15,551.37,221.07,549.71z"/>
<ellipse transform="matrix(0.9942 -0.1078 0.1078 0.9942 -54.913 20.6705)" class="st8" cx="163.65" cy="518.02" rx="6.42" ry="6.42"/>
<path class="st7" d="M159.71,518.89c0.4-3.03,3.19-5.16,6.22-4.76c1.73,0.23,3.17,1.24,4.01,2.63c-0.52-2.61-2.65-4.73-5.44-5.1
	c-3.51-0.47-6.74,2-7.21,5.51c-0.44,3.32,1.73,6.38,4.93,7.1C160.47,523.15,159.42,521.09,159.71,518.89z"/>
<path class="st9" d="M164.25,523.04c-0.92-0.69-0.79-2.41,0.28-3.83c1.07-1.42,2.69-2.02,3.6-1.33c0.92,0.69,0.79,2.41-0.28,3.83
	C166.79,523.14,165.17,523.73,164.25,523.04z"/>
<path class="st8" d="M128.45,535.74c-1.07-3.38,0.8-6.99,4.18-8.06c3.38-1.07,6.99,0.8,8.06,4.18c1.07,3.38-0.8,6.99-4.18,8.06
	C133.13,540.99,129.52,539.12,128.45,535.74z"/>
<path class="st7" d="M132.11,530.61c2.91-0.92,6.03,0.69,6.95,3.6c0.53,1.67,0.22,3.4-0.68,4.75c2.14-1.59,3.15-4.41,2.3-7.1
	c-1.07-3.38-4.68-5.25-8.06-4.18c-3.19,1.01-5.03,4.28-4.33,7.49C128.57,533.11,129.99,531.28,132.11,530.61z"/>
<path class="st9" d="M130.28,536.49c0.23-1.13,1.84-1.74,3.59-1.38s2.97,1.57,2.74,2.7c-0.23,1.13-1.84,1.74-3.59,1.38
	S130.05,537.61,130.28,536.49z"/>
<path class="st8" d="M85.57,510.93c0.99-3.4,4.55-5.36,7.96-4.37s5.36,4.55,4.37,7.96c-0.99,3.4-4.55,5.36-7.96,4.37
	C86.54,517.9,84.58,514.34,85.57,510.93z"/>
<path class="st7" d="M91.47,508.7c2.94,0.85,4.62,3.93,3.77,6.86c-0.49,1.68-1.7,2.95-3.2,3.57c2.66-0.13,5.07-1.91,5.86-4.61
	c0.99-3.4-0.97-6.97-4.37-7.96c-3.21-0.93-6.56,0.76-7.76,3.81C87.14,508.81,89.34,508.08,91.47,508.7z"/>
<path class="st9" d="M86.68,512.57c0.82-0.8,2.5-0.42,3.75,0.85c1.25,1.27,1.59,2.96,0.77,3.76c-0.82,0.8-2.5,0.42-3.75-0.85
	C86.21,515.06,85.86,513.37,86.68,512.57z"/>

<path class="st4" d="M320.51,234.91c4.57,9.06-2.16,18.6-16.57,26.77c-22.88,12.96-47.54,21.18-47.54,21.18s-9.93-13.77-11.39-22.58
	c12.71-6.02,28.48-13.26,42.72-21.41C307.21,227.73,315.94,225.85,320.51,234.91z"/>
<path class="st2" d="M115.21,268.48c-9.57-1.06-11-10.35-5.23-13.92c5.76-3.58,17.74-1.31,18.88,4.19
	c1.14,5.5,4.99,10.27,4.99,10.27S131.03,271.02,115.21,268.48z"/>

<path class="st40" d="M304.43,265.27c20.28,1.96,22.61,39.57,20.74,59.01c-1.87,19.44-3.64,27.93-6.76,46.71
	c-5.87,35.38-3.04,52.98,11.33,52.3c14.36-0.68,17.48-18.04,16.21-36.3c-0.96-13.81-3.5-27.59-8.06-40.66
	c-8.43-24.14-26.35-51.29-52.99-55.39"/>
</svg>
